# Blender 4.4.3
# www.blender.org
mtllib Box.mtl
o Cube
v 1.000000 0.128014 -1.000000
v 1.000000 -1.000000 -1.000000
v 1.000000 0.128014 3.093021
v 1.000000 -1.000000 3.093021
v -1.000000 0.128014 -1.000000
v -1.000000 -1.000000 -1.000000
v -1.000000 0.128014 3.093021
v -1.000000 -1.000000 3.093021
v 0.000000 -1.000000 -1.000000
v 0.000000 -1.000000 3.093021
v -0.500000 -1.000000 -1.000000
v -0.500000 0.128014 3.093021
v -0.500000 -1.000000 3.093021
v -0.500000 0.128014 -1.000000
v -0.250000 -1.000000 3.093021
v -0.250000 0.128014 -1.000000
v -0.250000 -1.000000 -1.000000
v -0.250000 0.128014 3.093021
v 0.500000 -1.000000 3.093021
v 0.500000 0.128014 -1.000000
v 0.500000 -1.000000 -1.000000
v 0.500000 0.128014 3.093021
v 0.250000 -1.000000 -1.000000
v 0.250000 0.128014 3.093021
v 0.250000 -1.000000 3.093021
v 0.250000 0.128014 -1.000000
v 0.250000 0.148410 3.093021
v 0.000000 0.148410 3.093021
v -0.250000 0.148410 -1.000000
v 0.000000 0.148410 -1.000000
v -0.250000 0.148410 3.093021
v 0.250000 0.148410 -1.000000
v 1.000000 -0.057948 -1.000000
v -1.000000 -0.057948 3.093021
v 1.000000 -0.057948 3.093021
v -1.000000 -0.057948 -1.000000
v 0.000000 -0.057948 -1.000000
v 0.000000 -0.057948 3.093021
v -0.500000 -0.057948 -1.000000
v -0.500000 -0.057948 3.093021
v -0.250000 -0.057948 3.093021
v -0.250000 -0.057948 -1.000000
v 0.500000 -0.057948 3.093021
v 0.500000 -0.057948 -1.000000
v 0.250000 -0.057948 -1.000000
v 0.250000 -0.057948 3.093021
v 0.250000 0.128014 3.123741
v 0.000000 0.128014 3.123741
v -0.250000 0.128014 3.123741
v 0.250000 0.148410 3.123741
v 0.000000 0.148410 3.123741
v -0.250000 0.148410 3.123741
v 0.000000 -0.031506 3.123741
v -0.250000 -0.031506 3.123741
v 0.250000 -0.031506 3.123741
v -0.250000 0.128014 -1.014422
v 0.000000 0.128014 -1.014422
v 0.250000 0.128014 -1.014422
v 0.250000 0.148410 -1.014422
v -0.250000 0.148410 -1.014422
v 0.000000 0.148410 -1.014422
v 0.000000 -0.035633 -1.014422
v -0.250000 -0.035633 -1.014422
v 0.250000 -0.035633 -1.014422
vn -0.0000 1.0000 -0.0000
vn -0.0000 -0.0000 1.0000
vn -1.0000 -0.0000 -0.0000
vn -0.0000 -1.0000 -0.0000
vn 1.0000 -0.0000 -0.0000
vn -0.0000 -0.0000 -1.0000
vn -0.0000 -0.7579 0.6524
vn -0.0000 -0.5428 -0.8399
vt 0.812500 0.500000
vt 0.875000 0.500000
vt 0.875000 0.750000
vt 0.812500 0.750000
vt 0.583786 0.937500
vt 0.625000 0.937500
vt 0.625000 1.000000
vt 0.583786 1.000000
vt 0.583786 0.000000
vt 0.625000 0.000000
vt 0.625000 0.250000
vt 0.583786 0.250000
vt 0.312500 0.500000
vt 0.375000 0.500000
vt 0.375000 0.750000
vt 0.312500 0.750000
vt 0.583786 0.500000
vt 0.625000 0.500000
vt 0.625000 0.750000
vt 0.583786 0.750000
vt 0.583786 0.437500
vt 0.625000 0.437500
vt 0.218750 0.500000
vt 0.250000 0.500000
vt 0.250000 0.750000
vt 0.218750 0.750000
vt 0.583786 0.843750
vt 0.625000 0.843750
vt 0.750000 0.500000
vt 0.718750 0.500000
vt 0.125000 0.500000
vt 0.187500 0.500000
vt 0.187500 0.750000
vt 0.125000 0.750000
vt 0.625000 0.312500
vt 0.583786 0.312500
vt 0.583786 0.906250
vt 0.625000 0.906250
vt 0.781250 0.500000
vt 0.781250 0.750000
vt 0.718750 0.750000
vt 0.625000 0.343750
vt 0.583786 0.343750
vt 0.687500 0.500000
vt 0.687500 0.750000
vt 0.625000 0.812500
vt 0.583786 0.812500
vt 0.583786 0.406250
vt 0.625000 0.406250
vt 0.281250 0.500000
vt 0.281250 0.750000
vt 0.750000 0.750000
vt 0.375000 0.812500
vt 0.375000 0.843750
vt 0.375000 0.375000
vt 0.583786 0.375000
vt 0.375000 0.406250
vt 0.375000 0.437500
vt 0.375000 0.312500
vt 0.375000 0.343750
vt 0.375000 0.875000
vt 0.583786 0.875000
vt 0.375000 0.906250
vt 0.375000 0.937500
vt 0.375000 0.250000
vt 0.375000 0.000000
vt 0.375000 1.000000
vt 0.625000 0.875000
vt 0.625000 0.375000
s 0
usemtl Material
f 14/1/1 5/2/1 7/3/1 12/4/1
f 40/5/2 12/6/2 7/7/2 34/8/2
f 34/9/3 7/10/3 5/11/3 36/12/3
f 21/13/4 2/14/4 4/15/4 19/16/4
f 33/17/5 1/18/5 3/19/5 35/20/5
f 44/21/6 20/22/6 1/18/6 33/17/6
f 17/23/4 9/24/4 10/25/4 15/26/4
f 6/31/4 11/32/4 13/33/4 8/34/4
f 36/12/6 5/11/6 14/35/6 39/36/6
f 41/37/2 18/38/2 12/6/2 40/5/2
f 16/39/1 14/1/1 12/4/1 18/40/1
f 11/32/4 17/23/4 15/26/4 13/33/4
f 39/36/6 14/35/6 16/42/6 42/43/6
f 1/18/1 20/44/1 22/45/1 3/19/1
f 35/20/2 3/19/2 22/46/2 43/47/2
f 45/48/6 26/49/6 20/22/6 44/21/6
f 23/50/4 21/13/4 19/16/4 25/51/4
f 9/24/4 23/50/4 25/51/4 10/25/4
f 20/44/1 26/30/1 24/41/1 22/45/1
f 43/47/2 22/46/2 24/28/2 46/27/2
f 19/53/2 43/47/2 46/27/2 25/54/2
f 9/55/6 37/56/6 45/48/6 23/57/6
f 23/57/6 45/48/6 44/21/6 21/58/6
f 4/15/2 35/20/2 43/47/2 19/53/2
f 11/59/6 39/36/6 42/43/6 17/60/6
f 10/61/2 38/62/2 41/37/2 15/63/2
f 15/63/2 41/37/2 40/5/2 13/64/2
f 6/65/6 36/12/6 39/36/6 11/59/6
f 25/54/2 46/27/2 38/62/2 10/61/2
f 17/60/6 42/43/6 37/56/6 9/55/6
f 21/58/6 44/21/6 33/17/6 2/14/6
f 2/14/5 33/17/5 35/20/5 4/15/5
f 8/66/3 34/9/3 36/12/3 6/65/3
f 13/64/2 40/5/2 34/8/2 8/67/2
f 29/39/1 30/29/1 61/29/1 60/39/1
usemtl Material.001
f 46/27/5 24/28/5 47/28/5 55/27/5
f 30/29/1 32/30/1 59/30/1 61/29/1
f 24/41/5 26/30/5 32/30/5 27/41/5
f 24/41/5 27/41/5 50/41/5 47/41/5
f 42/43/3 16/42/3 56/42/3 63/43/3
f 32/30/1 30/29/1 28/52/1 27/41/1
f 30/29/1 29/39/1 31/40/1 28/52/1
f 18/38/3 41/37/3 54/37/3 49/38/3
f 32/30/5 26/30/5 58/30/5 59/30/5
f 16/39/3 18/40/3 31/40/3 29/39/3
f 55/27/2 47/28/2 48/68/2 53/62/2
f 53/62/2 48/68/2 49/38/2 54/37/2
f 48/68/2 47/28/2 50/28/2 51/68/2
f 49/38/2 48/68/2 51/68/2 52/38/2
f 28/52/1 31/40/1 52/40/1 51/52/1
f 27/41/1 28/52/1 51/52/1 50/41/1
f 31/40/3 18/40/3 49/40/3 52/40/3
f 41/37/7 38/62/7 46/27/7 55/27/7 53/62/7 54/37/7
f 63/43/6 56/42/6 57/69/6 62/56/6
f 57/69/6 56/42/6 60/42/6 61/69/6
f 62/56/6 57/69/6 58/49/6 64/48/6
f 58/49/6 57/69/6 61/69/6 59/49/6
f 26/49/5 45/48/5 64/48/5 58/49/5
f 16/39/3 29/39/3 60/39/3 56/39/3
f 63/43/8 62/56/8 64/48/8 45/48/8 37/56/8 42/43/8
